<svg xmlns="http://www.w3.org/2000/svg" viewBox="0 0 48 48" id="free-delivery"><g data-name="free delivery"><polygon fill="#0075f6" points="31 25 38.82 25 41.09 30 31 30 31 25"></polygon><path fill="#0075f6" d="M45,37a1,1,0,0,1,0-2h2a2,2,0,0,0-1.23-1.5L42,32H30a1,1,0,0,1-1-1V24a1,1,0,0,1,1-1h7.91c-.42-.91-.77-2-2.2-2H3a2,2,0,0,0-2,2V35H3a1,1,0,0,1,0,2H1v4a2,2,0,0,0,2,2H4a6,6,0,0,1,12,0H29a6,6,0,0,1,12,0h4a2,2,0,0,0,2-2V37ZM15.7,30.71C13.56,32.86,13.55,33,13,33a1,1,0,0,1-.71-1.71l.3-.29H8a1,1,0,0,1,0-2h4.59l-.3-.29a1,1,0,0,1,1.42-1.42l2,2A1,1,0,0,1,15.7,30.71Z"></path><circle cx="35" cy="43" r="4" fill="#3f3f44"></circle><circle cx="10" cy="43" r="4" fill="#3f3f44"></circle><path fill="#3f3f44" d="M17.5,6H16V7h1.5A.5.5,0,0,0,17.5,6Zm0,0H16V7h1.5A.5.5,0,0,0,17.5,6ZM36,1H5A2,2,0,0,0,3,3V13a2,2,0,0,0,2,2H19l2,2,2-2H36a2,2,0,0,0,2-2V3A2,2,0,0,0,36,1ZM11,6H8V7h2a1,1,0,0,1,0,2H8v2a1,1,0,0,1-2,0V5A1,1,0,0,1,7,4h4A1,1,0,0,1,11,6Zm8.82,4.27A1,1,0,0,1,19,11.85c-.67,0-.74-.32-2.52-2.85H16v2a1,1,0,0,1-2,0V5a1,1,0,0,1,1-1h2.5a2.49,2.49,0,0,1,1.2,4.68ZM26,7a1,1,0,0,1,0,2H24v1h3a1,1,0,0,1,0,2H23a1,1,0,0,1-1-1V5a1,1,0,0,1,1-1h4a1,1,0,0,1,0,2H24V7Zm8,0a1,1,0,0,1,0,2H32v1h3a1,1,0,0,1,0,2H31a1,1,0,0,1-1-1V5a1,1,0,0,1,1-1h4a1,1,0,0,1,0,2H32V7ZM17.5,6H16V7h1.5A.5.5,0,0,0,17.5,6Z"></path></g></svg>