<svg xmlns="http://www.w3.org/2000/svg" width="32" height="32" id="sale"><path fill="#3453e0" d="m28.541 23.66-9.412 8.172v-6.4l9.412-8.173zM15.052 17.335l16.94-14.533v8.96l-16.94 14.533z"></path><path fill="#3477e0" d="m15.051 26.303 13.475-2.64v-8.96l-13.475 2.64zM0 6.02 32 .168v11.52L0 17.54z"></path><path style="line-height:125%;-inkscape-font-specification:'Bebas Neue Bold'" fill="#fff" d="m23.605 1023.996-3.178.615v7.413l3.178-.615v-1.059l-2.013.39v-2.171l1.6-.31v-1.059l-1.6.31v-2.066l2.013-.388v-1.06zm-5.612 1.085-1.164.226v7.413l3.082-.596v-1.059l-1.918.37v-6.354zm-2.883.559-1.705.33-1.187 7.642 1.072-.209.2-1.382 1.43-.278.2 1.306 1.177-.226-1.187-7.183zm-4.568.83c-.124 0-.257.018-.398.045-1.133.22-1.716 1.01-1.716 2.196 0 2.118 2.276 1.963 2.276 3.488 0 .529-.232.764-.603.836-.37.072-.603-.074-.603-.603v-.529l-1.102.212v.455c0 1.186.593 1.75 1.737 1.529 1.144-.221 1.737-1.013 1.737-2.2 0-2.117-2.278-1.964-2.278-3.489 0-.53.213-.772.584-.843.37-.072.582.089.582.619v.306l1.101-.212v-.233c0-1.038-.446-1.6-1.317-1.578zm3.657.657.562 3.641-1.123.217.56-3.857z" font-family="Bebas Neue" font-size="11.624" font-weight="700" letter-spacing="0" transform="translate(0 -1020.362)" word-spacing="0"></path></svg>