<svg xmlns="http://www.w3.org/2000/svg" width="36" height="36" id="sale"><g transform="translate(2 -1018.36)"><path fill="#3477e0" d="M23 1048.486c-1.027.57-2.906-.591-4.04-.287-1.028.275-1.897 2.18-2.96 2.163-1.175-.02-2.22-1.965-3.356-2.27-1.026-.275-2.732.941-3.644.394-1.007-.604-.94-2.812-1.771-3.643-.752-.752-2.837-.552-3.353-1.48-.57-1.028.591-2.907.287-4.042-.275-1.027-2.18-1.896-2.163-2.959.02-1.174 1.966-2.22 2.27-3.355.275-1.027-.941-2.733-.394-3.645.604-1.007 2.812-.94 3.643-1.771.752-.752.552-2.837 1.481-3.353 1.027-.57 2.906.592 4.04.288 1.028-.276 1.897-2.182 2.96-2.164 1.175.02 2.22 1.966 3.356 2.27 1.026.275 2.732-.941 3.644-.394 1.007.604.94 2.812 1.771 3.643.752.752 2.837.552 3.353 1.481.57 1.027-.591 2.906-.287 4.041.275 1.027 2.18 1.896 2.163 2.96-.02 1.174-1.966 2.22-2.27 3.355-.275 1.027.941 2.733.394 3.644-.604 1.007-2.812.94-3.643 1.771-.752.752-.552 2.837-1.481 3.353z"></path><circle cx="16" cy="1036.362" r="10.313" fill="#6ac1f7"></circle><circle cx="16" cy="1036.362" r="8.69" fill="#3477e0"></circle><path style="line-height:normal;text-indent:0;text-align:start;text-decoration-line:none;text-decoration-style:solid;text-decoration-color:#000;text-transform:none;block-progression:tb;isolation:auto;mix-blend-mode:normal" fill="#3462e0" fill-rule="evenodd" d="M9.75 1039.558a.562.562 0 0 0-.396.957l.032.031.7.711.702-.71.031-.032a.562.562 0 0 0 0-.792c-.185-.185-.457-.13-.672 0a.564.564 0 0 0-.398-.165zm0 .27c.074 0 .147.03.205.087l.13.132.134-.132a.288.288 0 0 1 .41 0 .287.287 0 0 1 0 .41l-.032.032-.51.516-.51-.516-.033-.031a.287.287 0 0 1 0-.41.293.293 0 0 1 .206-.088zm-1.356-4.27a.582.582 0 0 0-.41.99l.034.033.724.735.726-.735.033-.032a.582.582 0 0 0 0-.82c-.191-.192-.473-.134-.696 0a.583.583 0 0 0-.411-.171zm0 .28c.077 0 .153.03.212.09l.136.135.138-.135a.299.299 0 0 1 .424 0c.12.12.12.305 0 .424l-.033.032-.527.534-.53-.534-.032-.032a.296.296 0 0 1 0-.424.303.303 0 0 1 .212-.09zm10.075-3.199a.582.582 0 0 0-.41.992l.033.031.724.736.727-.735.033-.033a.582.582 0 0 0 0-.82c-.192-.191-.473-.133-.696 0a.583.583 0 0 0-.412-.17zm0 .28c.076 0 .152.03.212.09l.135.136.138-.136a.299.299 0 0 1 .425 0c.12.12.12.305 0 .425l-.033.032-.527.534-.53-.534-.033-.032a.296.296 0 0 1 0-.425.303.303 0 0 1 .213-.09zm-5.919-3.874a.582.582 0 0 0-.409.991l.033.032.724.735.727-.735.032-.032a.582.582 0 0 0 0-.82c-.19-.192-.473-.134-.695 0a.583.583 0 0 0-.412-.171zm0 .28c.077 0 .153.03.213.09l.135.136.138-.136a.299.299 0 0 1 .425 0c.119.12.119.305 0 .424l-.033.033-.528.533-.53-.534-.032-.032a.296.296 0 0 1 0-.424.303.303 0 0 1 .212-.09zm3.25 1.001a.582.582 0 0 0-.409.991l.033.032.724.735.727-.735.032-.032a.582.582 0 0 0 0-.82c-.191-.192-.473-.134-.695 0a.583.583 0 0 0-.412-.17zm0 .28c.077 0 .153.03.213.09l.135.136.138-.136a.299.299 0 0 1 .425 0c.119.12.119.305 0 .425l-.033.032-.528.533-.53-.533-.032-.032a.296.296 0 0 1 0-.425.303.303 0 0 1 .212-.09zm-2.187 1.956a.582.582 0 0 0-.409.991l.033.032.724.736.727-.736.033-.032a.582.582 0 0 0 0-.82c-.192-.191-.473-.133-.696 0a.583.583 0 0 0-.412-.17zm0 .28c.077 0 .153.03.213.09l.135.136.138-.136a.299.299 0 0 1 .425 0c.119.12.119.305 0 .425l-.033.032-.527.534-.53-.534-.033-.032a.296.296 0 0 1 0-.425.303.303 0 0 1 .212-.09zm9.094 1.578a.582.582 0 0 0-.41.991l.033.032.724.735.727-.735.033-.032a.582.582 0 0 0 0-.82c-.192-.192-.473-.134-.696 0a.583.583 0 0 0-.412-.171zm0 .28c.076 0 .152.03.212.09l.135.136.138-.136a.299.299 0 0 1 .425 0c.12.12.12.305 0 .424l-.033.033-.527.533-.53-.534-.033-.032a.296.296 0 0 1 0-.424.303.303 0 0 1 .213-.09zm-1.47-3.593a.582.582 0 0 0-.408.992l.032.032.725.735.726-.735.033-.032a.582.582 0 0 0 0-.821c-.191-.191-.473-.133-.696 0a.583.583 0 0 0-.411-.17zm0 .28c.078 0 .153.03.213.09l.136.136.138-.136a.299.299 0 0 1 .424 0c.12.12.12.305 0 .425l-.033.032-.527.534-.53-.534-.032-.032a.296.296 0 0 1 0-.424.303.303 0 0 1 .212-.09zm1.063 7.002a.582.582 0 0 0-.409.99l.033.033.724.735.727-.735.032-.032a.582.582 0 0 0 0-.82c-.191-.192-.473-.134-.695 0a.583.583 0 0 0-.412-.171zm0 .28c.077 0 .153.03.213.09l.135.135.138-.135a.299.299 0 0 1 .425 0c.119.119.119.305 0 .424l-.033.032-.528.534-.53-.534-.032-.032a.296.296 0 0 1 0-.424.303.303 0 0 1 .212-.09zm-6.562.688a.582.582 0 0 0-.41.992l.033.032.725.735.726-.735.033-.032a.582.582 0 0 0 0-.821c-.191-.191-.473-.133-.696 0a.583.583 0 0 0-.411-.17zm0 .28c.077 0 .152.03.212.09l.136.136.138-.136a.299.299 0 0 1 .424 0c.12.12.12.305 0 .425l-.033.032-.527.534-.53-.534-.032-.032a.296.296 0 0 1 0-.424.303.303 0 0 1 .212-.09zm3.723.907a.582.582 0 0 0-.41.99l.034.033.724.735.726-.735.033-.032a.582.582 0 0 0 0-.82c-.191-.192-.473-.134-.696 0a.583.583 0 0 0-.411-.171zm0 .28c.077 0 .153.03.212.09l.136.135.138-.135a.299.299 0 0 1 .424 0c.12.119.12.305 0 .424l-.033.032-.527.534-.53-.534-.032-.032a.296.296 0 0 1 0-.424.303.303 0 0 1 .212-.09zm-6.76-.365a.582.582 0 0 0-.409.991l.033.032.724.735.727-.735.032-.032a.582.582 0 0 0 0-.82c-.191-.192-.473-.134-.696 0a.583.583 0 0 0-.41-.171zm0 .28c.077 0 .153.03.212.09l.136.136.138-.136a.299.299 0 0 1 .424 0c.12.12.12.305 0 .425l-.032.032-.528.533-.53-.533-.032-.032a.296.296 0 0 1 0-.425.303.303 0 0 1 .212-.09zm3.006 2.025a.582.582 0 0 0-.41.99l.033.033.724.735.727-.735.033-.032a.582.582 0 0 0 0-.82c-.192-.192-.473-.134-.696 0a.583.583 0 0 0-.412-.171zm0 .28c.076 0 .152.03.212.09l.135.135.138-.135a.299.299 0 0 1 .425 0c.12.12.12.305 0 .424l-.033.032-.527.534-.53-.534-.033-.032a.296.296 0 0 1 0-.424.303.303 0 0 1 .213-.09zm3.156-14.124a.582.582 0 0 0-.41.991l.033.032.725.735.726-.735.033-.032a.582.582 0 0 0 0-.82c-.191-.192-.473-.134-.696 0a.583.583 0 0 0-.411-.171zm0 .28c.077 0 .152.03.212.09l.136.136.138-.136a.299.299 0 0 1 .424 0c.12.12.12.305 0 .424l-.033.033-.527.533-.53-.534-.032-.032a.296.296 0 0 1 0-.424.303.303 0 0 1 .212-.09zm-8.781 2.376a.582.582 0 0 0-.41.991l.033.032.724.735.727-.735.033-.032a.582.582 0 0 0 0-.82c-.192-.192-.473-.134-.696 0a.583.583 0 0 0-.412-.17zm0 .28c.076 0 .152.03.212.09l.135.136.138-.136a.299.299 0 0 1 .425 0c.12.12.12.305 0 .425l-.033.032-.527.533-.53-.533-.033-.032a.296.296 0 0 1 0-.425.303.303 0 0 1 .213-.09z" color="#000" font-family="sans-serif" font-weight="400" overflow="visible"></path><path style="line-height:125%;-inkscape-font-specification:'Bebas Neue Bold'" fill="#f2f2f2" d="M10.637 13.385c-.79 0-1.221.467-1.221 1.285v2.66c0 .818.432 1.285 1.22 1.285.79 0 1.221-.467 1.221-1.285v-2.66c0-.818-.431-1.285-1.22-1.285zm1.742.058v5.114h.805v-2.112h1.037v-.73h-1.037v-1.541h1.322v-.73h-2.127zm2.512 0v5.114h.802v-2.112h1.04v-.73h-1.04v-1.541h1.325v-.73H14.89zm2.511 0v5.114h2.192v-.73h-1.389V16.33h1.104v-.732h-1.104v-1.424h1.389v-.73h-2.192zm2.682 0v5.114h.805v-2.082h.277c.365 0 .525.175.525.65v.805c0 .416.03.495.075.627h.818c-.08-.19-.088-.371-.088-.62v-.789c0-.533-.131-.921-.533-1.09.358-.167.525-.51.525-1.037v-.402c0-.789-.358-1.176-1.191-1.176h-1.213zm-9.447.672c.255 0 .416.139.416.504v2.762c0 .365-.16.504-.416.504s-.416-.139-.416-.504v-2.762c0-.365.16-.504.416-.504zm10.252.059h.386c.285 0 .41.16.41.525v.504c0 .41-.182.541-.482.541h-.314v-1.57z" font-family="Bebas Neue" font-size="7.306" font-weight="700" letter-spacing="0" transform="translate(0 1020.362)" word-spacing="0"></path><path style="line-height:normal;text-indent:0;text-align:start;text-decoration-line:none;text-decoration-style:solid;text-decoration-color:#000;text-transform:none;block-progression:tb;isolation:auto;mix-blend-mode:normal" fill="#e9eded" d="M16.018 5c-1.134-.019-1.742.759-2.239 1.287-.497.529-.974.904-.998.91-.126.034-.798-.06-1.562-.248-.765-.187-1.713-.5-2.705.051-.992.55-1.13 1.528-1.295 2.234-.166.707-.39 1.27-.407 1.287-.092.092-.724.347-1.48.567-.756.22-1.73.425-2.314 1.398-.584.973-.214 1.886-.004 2.58.209.695.295 1.295.289 1.319-.034.126-.452.662-.996 1.23-.545.569-1.288 1.233-1.307 2.367-.02 1.134.759 1.742 1.287 2.239.529.497.904.974.91.998.034.126-.06.797-.248 1.562-.187.765-.5 1.713.051 2.705.55.992 1.528 1.129 2.234 1.295.707.166 1.27.39 1.287.407.093.092.347.724.567 1.48.22.756.425 1.73 1.398 2.314.973.584 1.886.214 2.58 0 .695-.209 1.295-.295 1.319-.289.126.034.662.452 1.23.996.569.545 1.233 1.288 2.367 1.307 1.134.02 1.742-.758 2.239-1.287.497-.529.974-.904.998-.91.126-.034.798.06 1.562.248.765.187 1.713.5 2.705-.05.992-.551 1.13-1.529 1.295-2.235.166-.707.39-1.27.407-1.287.092-.092.724-.347 1.48-.567.756-.22 1.73-.425 2.314-1.398.584-.973.214-1.886.004-2.58-.209-.695-.295-1.295-.289-1.319.034-.126.452-.662.996-1.23.545-.569 1.288-1.233 1.307-2.367.02-1.134-.759-1.742-1.287-2.239-.529-.497-.904-.974-.91-.998-.034-.126.06-.797.248-1.562.187-.765.5-1.713-.051-2.705-.55-.992-1.528-1.13-2.234-1.295-.707-.166-1.27-.39-1.287-.406-.093-.092-.347-.725-.567-1.48-.22-.757-.425-1.732-1.398-2.315-.973-.584-1.886-.213-2.58 0-.695.209-1.295.295-1.319.289-.126-.034-.662-.452-1.23-.996-.569-.545-1.233-1.288-2.367-1.307ZM16 6c1.175.02 2.22 1.965 3.355 2.27 1.027.275 2.733-.942 3.645-.395 1.007.604.94 2.814 1.771 3.645.752.751 2.838.55 3.354 1.48.57 1.027-.593 2.906-.29 4.041.276 1.027 2.183 1.896 2.165 2.959-.02 1.175-1.965 2.22-2.27 3.355-.275 1.027.942 2.733.395 3.645-.604 1.007-2.814.94-3.645 1.771-.751.752-.55 2.838-1.48 3.354-1.027.57-2.906-.593-4.041-.29-1.027.276-1.896 2.183-2.959 2.165-1.175-.02-2.22-1.965-3.355-2.27-1.027-.275-2.733.942-3.645.395-1.007-.604-.94-2.814-1.771-3.645-.752-.751-2.838-.55-3.354-1.48-.57-1.027.593-2.906.29-4.041C3.888 21.932 1.981 21.063 2 20c.02-1.175 1.965-2.22 2.27-3.355.275-1.027-.942-2.733-.395-3.645.604-1.007 2.814-.94 3.645-1.771.751-.752.55-2.838 1.48-3.354 1.027-.57 2.906.593 4.041.29C14.068 7.888 14.937 5.981 16 6Z" color="#000" font-family="sans-serif" font-weight="400" overflow="visible" transform="translate(0 1016.362)"></path></g></svg>